<svg xmlns="http://www.w3.org/2000/svg" data-name="Layer 1" viewBox="0 0 512 512"><polygon fill="#fbfbfb" points="75.587 461.939 431.026 457.464 384.923 308.995 127.08 308.996 75.587 461.939"/><path fill="#ffc97a" d="M148,449a108,108,0,0,1,216,0L256,494Z"/><path fill="#ffc166" d="M256,341a109.17776,109.17776,0,0,0-11.5249.61279A108.0116,108.0116,0,0,1,340.9502,449l-96.4751,40.198L256,494l108-45A108,108,0,0,0,256,341Z"/><polygon fill="#fbfbfb" points="425.27 52.501 424.36 67.501 413 254.501 99 254.501 87.64 67.501 86.73 52.501 88.3 22.531 89.09 7.501 422.91 7.501 423.7 22.531 425.27 52.501"/><polygon fill="#f7f7f7" points="423.7 22.531 422.91 7.501 392.91 7.501 393.7 22.531 395.27 52.501 394.36 67.501 383 254.501 413 254.501 424.36 67.501 425.27 52.501 423.7 22.531"/><polygon fill="#dedede" points="428 449.5 384.923 309.501 413 254.5 473 449.5 428 449.5"/><path fill="#f7f7f7" d="M425.27,52.50142l-.91016,15H282.7a26.7,26.7,0,1,1-53.3999,0H87.64014l-.91016-15,1.57007-29.97c.26-.02.52-.03.79-.03H422.90991c.27,0,.53.01.79.03Z"/><path fill="#f66" d="M75.20246,52.5h154.0947a26.70284,26.70284,0,1,0,53.40568,0h154.0947a6,6,0,0,0,5.6921-7.89737L432.40133,14.33772A10,10,0,0,0,422.9145,7.5H89.0855a10,10,0,0,0-9.48683,6.83772L69.51036,44.60263A6,6,0,0,0,75.20246,52.5Z"/><path fill="#ff4e4e" d="M442.48975,44.6025,432.40137,14.33785A10.00008,10.00008,0,0,0,422.91455,7.5h-45a10.00008,10.00008,0,0,1,9.48682,6.83789L397.48975,44.6025A6.0002,6.0002,0,0,1,391.79761,52.5h45A6.0002,6.0002,0,0,0,442.48975,44.6025Z"/><path fill="#f66" d="M473,449.5H282.70284a26.70284,26.70284,0,1,1-53.40568,0H39v45a10,10,0,0,0,10,10H463a10,10,0,0,0,10-10Z"/><path fill="#ff4e4e" d="M428,449.5v45a9.99987,9.99987,0,0,1-10,10h45a9.99987,9.99987,0,0,0,10-10v-45Z"/><polygon fill="#dedede" points="39 449.5 99 254.5 127.08 309.502 84 449.502 39 449.5"/><polygon fill="#f2f2f2" points="127.08 309.502 384.92 309.502 413 254.5 99 254.5 127.08 309.502"/><circle cx="203.984" cy="410" r="15" fill="#f66"/><circle cx="262.924" cy="383.749" r="15" fill="#f66"/><circle cx="316.411" cy="417.5" r="15" fill="#f66"/><path fill="#ff4e4e" d="M316.41089 402.5a14.92961 14.92961 0 0 0-5.24463.96142 14.97887 14.97887 0 0 1 0 28.07715A14.994 14.994 0 1 0 316.41089 402.5zM262.924 368.74946a14.92984 14.92984 0 0 0-5.24463.96142 14.97887 14.97887 0 0 1 0 28.07715 14.994 14.994 0 1 0 5.24463-29.03857zM203.98435 395a14.92962 14.92962 0 0 0-5.24463.96143 14.97886 14.97886 0 0 1 0 28.07714A14.994 14.994 0 1 0 203.98435 395z"/><path fill="#272a33" d="M203.98425,387.5a22.5,22.5,0,1,0,22.5,22.5A22.52586,22.52586,0,0,0,203.98425,387.5Zm0,30a7.5,7.5,0,1,1,7.5-7.5A7.5082,7.5082,0,0,1,203.98425,417.5ZM480.462,448.75071c-.01392-.14038-.0398-.2771-.06153-.415-.01635-.10352-.02636-.20679-.04736-.31031a7.40761,7.40761,0,0,0-.20532-.79638l-59.5791-193.63208L432.328,60h4.46973a13.49953,13.49953,0,0,0,12.80664-17.76855l-10.08789-30.2666A17.48,17.48,0,0,0,422.91394,0H89.08582A17.4796,17.4796,0,0,0,72.48328,11.9658L62.39636,42.22947A13.49917,13.49917,0,0,0,75.202,60h4.46972L91.431,253.59691,31.85193,447.229a7.40526,7.40526,0,0,0-.20532.79638c-.021.10352-.031.20679-.04737.31031-.02173.13793-.0476.27465-.06152.415a7.46511,7.46511,0,0,0-.03784.81031V494.5a17.52,17.52,0,0,0,17.5,17.5h414a17.52,17.52,0,0,0,17.5-17.5V449.561A7.47018,7.47018,0,0,0,480.462,448.75071ZM462.84558,442H433.53894L392.98523,310.20115l18.2854-35.81909ZM255.99988,333.5A115.64384,115.64384,0,0,0,140.71814,442H94.15491L132.619,317.001H379.38391L417.84534,442H371.28162A115.64384,115.64384,0,0,0,255.99988,333.5ZM356.25208,442H282.703a7.49943,7.49943,0,0,0-7.5,7.5,19.20313,19.20313,0,0,1-38.40625,0,7.49943,7.49943,0,0,0-7.5-7.5H155.74768a100.496,100.496,0,0,1,200.5044,0Zm44.49853-180-20.42017,40.001H131.67175L111.24963,262ZM106.05823,247,94.69983,60h127.925a34.20877,34.20877,0,0,0,66.75,0H417.29993l-11.3584,187ZM77.28406,45l9.42969-28.291A2.49606,2.49606,0,0,1,89.08,15.00047l.00976.00049H422.91l.00977-.00049A2.49647,2.49647,0,0,1,425.286,16.708L434.7157,45H282.703a7.49943,7.49943,0,0,0-7.5,7.5,19.20313,19.20313,0,0,1-38.40625,0,7.49943,7.49943,0,0,0-7.5-7.5Zm23.44531,229.38135,18.28809,35.821L78.4613,442H49.15417ZM465.49988,494.5a2.50232,2.50232,0,0,1-2.5,2.5h-414a2.50231,2.50231,0,0,1-2.5-2.5V457H83.9635c.01294,0,.02612.00293.03931.00293.0122,0,.02417-.00293.03662-.00293H222.62488a34.20877,34.20877,0,0,0,66.75,0H427.97253l.02442.002.02637-.002h37.47656ZM221.34363,363.4951a8,8,0,1,0,8,8A8.00917,8.00917,0,0,0,221.34363,363.4951ZM293.911,417.5a22.5,22.5,0,1,0,22.5-22.5A22.52586,22.52586,0,0,0,293.911,417.5Zm30,0a7.5,7.5,0,1,1-7.5-7.5A7.5082,7.5082,0,0,1,323.911,417.5Zm-19.63867-30a8,8,0,1,0-8-8A8.00917,8.00917,0,0,0,304.27234,387.5Zm-41.34863-26.251a22.5,22.5,0,1,0,22.5,22.5A22.52586,22.52586,0,0,0,262.92371,361.249Zm0,30a7.5,7.5,0,1,1,7.5-7.5A7.5082,7.5082,0,0,1,262.92371,391.249ZM255.99988,424.5a8,8,0,1,0,8,8A8.00917,8.00917,0,0,0,255.99988,424.5Z"/></svg>